<svg width="245" height="74" viewBox="0 0 245 74" fill="none" xmlns="http://www.w3.org/2000/svg">
<path d="M206.735 51.2409C207.731 50.8892 208.865 49.9417 210.134 48.3983C211.404 46.8353 212.537 45.1454 213.534 43.3285C214.53 41.5116 215.341 39.7631 215.966 38.0829C216.591 36.3832 216.836 35.211 216.699 34.5663C216.582 34.0583 216.347 33.6774 215.995 33.4234C215.644 33.1499 215.204 33.0131 214.677 33.0131C214.169 32.9936 213.553 33.1694 212.831 33.5406C212.127 33.8923 211.395 34.4295 210.633 35.1524C208.386 37.2233 206.657 39.9682 205.446 43.3871C204.449 46.1613 204.146 48.3397 204.537 49.9221C204.85 51.2116 205.582 51.6511 206.735 51.2409ZM216.669 54.0835C216.513 53.7123 216.337 53.556 216.142 53.6146C215.966 53.6536 215.488 53.976 214.706 54.5816C213.397 55.6171 212.039 56.4376 210.633 57.0433C209.226 57.6294 207.868 58.0006 206.559 58.1569C205.25 58.2936 203.99 58.1959 202.779 57.8638C201.587 57.5317 200.542 57.0042 199.643 56.2813C198.745 55.5389 198.012 54.5523 197.445 53.3215C196.879 52.0712 196.566 50.645 196.508 49.043C196.371 46.2297 196.791 43.4848 197.768 40.8083C198.725 38.1122 200.141 35.6994 202.017 33.5699C203.892 31.4404 206.071 29.7896 208.552 28.6174C210.271 27.7968 212.313 27.3963 214.677 27.4159C217.041 27.4159 218.994 27.8359 220.538 28.676C220.616 28.7346 220.743 28.7541 220.919 28.7346C221.114 28.7151 221.368 28.6955 221.681 28.676C222.013 28.6369 222.462 28.6369 223.029 28.676C224.045 28.7346 224.924 28.9788 225.666 29.4086C226.409 29.8189 226.946 30.3464 227.278 30.9911C227.63 31.6163 227.786 32.3391 227.747 33.1596C227.708 33.9802 227.444 34.8007 226.956 35.6213C225.451 38.2587 224.426 41.0427 223.879 43.9732C223.351 46.9037 223.498 49.3751 224.318 51.3874C225.393 53.7513 227.073 54.3081 229.359 53.0578C231.234 52.0223 233.119 50.0589 235.014 47.1675C236.05 45.5459 236.9 43.9048 237.564 42.2442C237.935 41.2869 238.218 40.6031 238.414 40.1929C238.609 39.7631 238.853 39.3919 239.146 39.0793C239.459 38.7667 239.772 38.5811 240.084 38.5225C240.416 38.4639 240.885 38.4346 241.491 38.4346C242.78 38.4346 243.699 38.6104 244.246 38.962C244.793 39.2942 245.037 39.8998 244.978 40.779C244.92 41.6386 244.558 42.8987 243.894 44.5593C242.683 47.5289 241.051 50.3715 239 53.0871C236.949 55.8027 234.868 57.688 232.758 58.743C231.234 59.5049 229.71 59.9738 228.186 60.1496C226.682 60.3059 225.324 60.218 224.113 59.8859C222.921 59.5537 221.808 59.0751 220.772 58.4499C219.756 57.8052 218.906 57.1116 218.223 56.3692C217.558 55.6269 217.041 54.8649 216.669 54.0835Z" fill="#2C3136"/>
<path d="M172.451 54.7282C170.302 49.8635 170.4 41.1306 172.744 28.5294C173.467 24.6807 174.405 20.5878 175.557 16.2506C173.721 16.446 171.777 16.6511 169.726 16.866C169.14 16.9442 168.544 16.9637 167.938 16.9246C167.332 16.8856 166.903 16.8074 166.649 16.6902C165.516 16.2213 164.881 15.5668 164.744 14.7268C164.607 13.8867 165.008 13.1736 165.945 12.5875C166.825 12.0209 170.585 11.3176 177.228 10.4775C178.732 5.69104 179.846 3.05359 180.569 2.56517C181.213 2.09629 182.259 1.86185 183.704 1.86185C185.15 1.86185 186.205 2.09629 186.869 2.56517C187.533 3.03405 187.856 3.6983 187.836 4.55791C187.817 5.39799 187.436 6.93162 186.693 9.15881C186.654 9.27603 186.615 9.39325 186.576 9.51047C189.292 9.29556 191.47 9.18811 193.111 9.18811C194.811 9.18811 196.149 9.42255 197.126 9.89143C198.103 10.3408 198.591 10.9562 198.591 11.7376C198.591 12.48 198.347 13.0661 197.859 13.496C197.39 13.9062 196.589 14.2286 195.456 14.463C194.342 14.6975 192.711 14.8733 190.562 14.9905C188.901 15.0882 186.996 15.2249 184.847 15.4008C183.011 22.1019 181.76 27.367 181.096 31.1962C180.823 32.7787 180.578 34.3807 180.363 36.0022C180.149 37.6042 179.963 39.3625 179.807 41.2771C179.65 43.1722 179.602 45.0087 179.66 46.7865C179.738 48.5448 179.934 50.0393 180.246 51.2702C180.95 53.9858 182.327 55.197 184.378 54.904C186.234 54.65 188.256 53.2727 190.444 50.772C192.633 48.2517 194.283 45.4091 195.397 42.2442C195.944 40.6617 196.559 39.5872 197.243 39.0207C197.927 38.4541 198.894 38.1708 200.144 38.1708C201.961 38.1903 203.016 38.6788 203.309 39.6361C203.622 40.5934 203.3 42.2247 202.342 44.53C201.151 47.5387 199.685 50.2347 197.947 52.6182C196.227 54.9821 194.43 56.8674 192.554 58.2741C190.679 59.6807 188.735 60.6966 186.723 61.3218C184.71 61.9274 182.815 62.1033 181.037 61.8493C179.26 61.5758 177.609 60.8334 176.085 59.6221C174.561 58.4108 173.35 56.7795 172.451 54.7282Z" fill="#2C3136"/>
<path d="M149.8 40.9841C150.894 40.4175 151.891 39.5677 152.789 38.4346C153.708 37.3014 154.167 36.3344 154.167 35.5334C154.167 34.7519 154.02 34.3123 153.727 34.2146C153.434 34.1169 152.829 34.3123 151.91 34.8007C150.855 35.3478 149.566 36.5102 148.042 38.288C146.518 40.0463 145.756 41.2478 145.756 41.8926C145.756 42.381 146.469 42.3614 147.896 41.8339C148.482 41.619 149.117 41.3358 149.8 40.9841ZM148.071 60.7357C146.333 60.4231 144.75 59.9152 143.324 59.2118C141.898 58.5085 140.686 57.6782 139.69 56.7209C138.713 55.7636 137.893 54.6793 137.228 53.468C136.564 52.2372 136.105 50.9673 135.851 49.6584C135.578 48.3299 135.49 46.9526 135.587 45.5264C135.685 44.0807 135.968 42.6642 136.437 41.2771C136.906 39.89 137.57 38.5225 138.43 37.1744C139.309 35.8069 140.354 34.5468 141.566 33.3941C143.617 31.4404 145.893 29.9752 148.394 28.9983C150.894 28.0215 153.268 27.6894 155.515 28.002C157.781 28.295 159.539 29.2523 160.79 30.8739C161.337 31.5772 161.679 32.4368 161.815 33.4527C161.972 34.4686 161.923 35.5431 161.669 36.6763C161.434 37.7898 160.946 38.9327 160.204 40.1049C159.461 41.2576 158.533 42.3321 157.42 43.3285C156.326 44.3249 154.919 45.2138 153.2 45.9953C151.5 46.7572 149.625 47.3042 147.573 47.6363C145.659 47.9489 144.652 48.1541 144.555 48.2517C144.535 48.3104 144.516 48.4471 144.496 48.662C144.496 48.8574 144.545 49.1309 144.643 49.4826C144.76 49.8342 144.887 50.2152 145.024 50.6255C145.16 51.0162 145.366 51.4265 145.639 51.8563C145.932 52.2861 146.245 52.6866 146.577 53.0578C146.928 53.429 147.348 53.7611 147.837 54.0541C148.345 54.3472 148.892 54.5523 149.478 54.6696C150.846 54.9626 152.399 54.8649 154.137 54.3765C155.896 53.8685 157.605 53.0871 159.266 52.0321C160.946 50.9771 162.519 49.6291 163.984 47.988C165.469 46.3274 166.612 44.5691 167.413 42.7131C167.842 41.7363 168.223 40.9743 168.556 40.4273C168.888 39.8607 169.269 39.4309 169.698 39.1379C170.148 38.8253 170.587 38.6299 171.017 38.5518C171.467 38.4736 172.072 38.4346 172.834 38.4346C173.83 38.4346 174.651 38.7374 175.296 39.343C175.94 39.9291 176.263 40.6129 176.263 41.3944C176.263 42.1563 175.628 43.6704 174.358 45.9366C173.108 48.1834 171.857 49.9905 170.607 51.3581C167.422 54.8942 163.798 57.5121 159.735 59.2118C155.691 60.892 151.803 61.3999 148.071 60.7357Z" fill="#2C3136"/>
<path d="M91.398 62.0544C91.1635 61.6442 91.1538 60.4915 91.3687 58.5964C91.564 56.7014 91.9352 54.3472 92.4823 51.5339C93.0879 48.6034 93.3907 47.0112 93.3907 46.7572C93.3907 46.64 93.2344 46.4641 92.9218 46.2297C92.6093 45.9953 92.2381 45.7706 91.8082 45.5557C90.8509 45.1063 90.2062 44.5886 89.8741 44.0025C89.5224 43.3969 89.4638 42.8401 89.6983 42.3321C89.9327 41.8046 90.3723 41.3358 91.017 40.9255C91.6617 40.4957 92.4237 40.2026 93.3028 40.0463L95.2369 39.724L96.204 36.3832C97.6302 31.4795 99.535 25.7162 101.918 19.0932C104.302 12.4507 106.217 7.60565 107.662 4.55792C108.698 2.36981 109.616 1.09016 110.417 0.71896C111.589 0.191469 112.732 0.0547122 113.846 0.308689C114.959 0.54313 115.76 1.11946 116.249 2.03769C116.424 2.36981 116.464 2.79962 116.366 3.32711C116.268 3.83506 115.985 4.60676 115.516 5.64221C114.598 7.69356 113.26 11.2688 111.501 16.3679C109.743 21.4474 108.2 26.1655 106.871 30.5222C105.562 34.8593 104.996 37.1158 105.171 37.2917C105.347 37.4089 106.558 36.9009 108.805 35.7678C111.716 34.3025 114.783 31.7237 118.007 28.0313C118.515 27.4647 119.482 27.1912 120.908 27.2107C122.354 27.2107 123.34 27.5038 123.868 28.0899C124.571 28.8713 124.767 29.7407 124.454 30.698C124.141 31.6358 123.204 32.9447 121.641 34.6249C121.016 35.3282 120.303 36.012 119.502 36.6763C118.701 37.321 117.89 37.9071 117.069 38.4346C116.249 38.962 115.399 39.47 114.52 39.9584C113.66 40.4468 112.83 40.8864 112.029 41.2771C111.228 41.6483 110.446 42 109.684 42.3321C108.942 42.6447 108.268 42.928 107.662 43.182C107.076 43.4164 106.558 43.6215 106.109 43.7974C105.679 43.9732 105.357 44.1197 105.142 44.237C104.927 44.3542 104.849 44.4421 104.908 44.5007C105.826 45.2822 107.613 46.6009 110.27 48.4569C112.947 50.2933 114.686 51.4265 115.487 51.8563C116.952 52.6182 118.388 53.0773 119.795 53.2336C121.221 53.3899 122.491 53.3215 123.604 53.0285C124.718 52.7159 125.802 52.2177 126.857 51.5339C127.932 50.8306 128.84 50.098 129.582 49.336C130.344 48.5546 131.067 47.6852 131.751 46.7279C132.454 45.7706 132.992 44.9794 133.363 44.3542C133.734 43.7095 134.066 43.0843 134.359 42.4787C134.379 42.42 134.418 42.3321 134.476 42.2149C134.809 41.5311 135.043 41.0525 135.18 40.779C135.336 40.4859 135.531 40.1538 135.766 39.7826C136 39.4114 136.186 39.177 136.323 39.0793C136.459 38.962 136.645 38.8351 136.879 38.6983C137.133 38.5615 137.387 38.4834 137.641 38.4639C137.895 38.4248 138.227 38.4053 138.638 38.4053C139.673 38.4053 140.552 38.6592 141.275 39.1672C141.998 39.6556 142.359 40.2515 142.359 40.9548C142.359 41.2478 142.174 41.873 141.803 42.8303C141.431 43.7876 140.982 44.7938 140.455 45.8487C140.24 46.2785 139.976 46.7572 139.663 47.2847C139.37 47.8122 138.853 48.6034 138.11 49.6584C137.368 50.6938 136.586 51.6707 135.766 52.5889C134.945 53.5071 133.9 54.4742 132.63 55.4901C131.38 56.4865 130.081 57.3168 128.733 57.981C127.404 58.6453 125.861 59.1532 124.102 59.5049C122.344 59.837 120.537 59.8956 118.681 59.6807C116.825 59.4463 114.764 58.8504 112.498 57.8931C110.231 56.9163 107.916 55.5585 105.552 53.8197C102.973 51.9051 101.635 51.0064 101.538 51.1236C101.42 51.1823 101.108 52.7843 100.6 55.9297C100.131 58.8797 99.8085 60.7845 99.6327 61.6442C99.4764 62.367 98.8708 62.9531 97.8158 63.4025C97.0539 63.715 96.3017 63.8811 95.5593 63.9006C94.8364 63.9202 94.2503 63.8518 93.801 63.6955C93.3321 63.5392 92.8925 63.3243 92.4823 63.0508C92.072 62.7577 91.8082 62.5428 91.691 62.4061C91.5543 62.2498 91.4566 62.1326 91.398 62.0544Z" fill="#2C3136"/>
<path d="M68.1906 54.8161L69.4214 53.2922C68.9134 52.6866 68.5325 52.2275 68.2785 51.9149C68.0441 51.6023 67.6826 51.0748 67.1942 50.3324C66.7253 49.5705 66.3737 48.8867 66.1392 48.2811C65.9048 47.6754 65.6899 46.933 65.4945 46.0539C65.2991 45.1552 65.2112 44.2565 65.2308 43.3578C65.3284 40.017 66.8132 38.1708 69.6851 37.8192C70.955 37.6238 71.59 37.3991 71.59 37.1451C71.59 37.0084 71.4337 36.8521 71.1211 36.6763C70.1247 36.1097 69.1088 35.8069 68.0734 35.7678C67.0574 35.7287 66.1099 35.9241 65.2308 36.3539C64.3516 36.7837 63.5213 37.3893 62.7398 38.1708C61.9584 38.9327 61.2746 39.8217 60.6885 40.8376C60.1219 41.8339 59.6433 42.928 59.2525 44.1197C58.8813 45.2919 58.6371 46.4739 58.5199 47.6657C58.4222 48.8379 58.4711 50.0101 58.6664 51.1823C58.8813 52.3545 59.2525 53.4192 59.78 54.3765C60.3271 55.3533 60.9815 56.0371 61.7435 56.4279C62.5249 56.7991 63.2673 56.926 63.9706 56.8088C64.674 56.6916 65.3578 56.4767 66.022 56.1641C66.7058 55.8515 67.2235 55.5682 67.5752 55.3143C67.9464 55.0408 68.1515 54.8747 68.1906 54.8161ZM53.1571 59.71C51.3206 57.815 50.1387 55.4119 49.6112 52.501C49.0837 49.5705 49.2986 46.5325 50.2559 43.3871C51.1936 40.2417 52.7859 37.4382 55.0326 34.9766C57.377 32.4173 60.0828 30.6883 63.1501 29.7896C66.2174 28.8909 69.4214 28.8518 72.7622 29.6723C73.739 29.9068 74.6279 30.2682 75.4289 30.7566C76.2495 31.2451 76.8844 31.7823 77.3338 32.3684C77.7831 32.9545 78.0859 33.5504 78.2422 34.156C78.3985 34.7617 78.3399 35.3478 78.0664 35.9143C77.7929 36.4614 77.3142 36.9205 76.6304 37.2917L75.4582 37.9071L76.7183 38.7276C78.7502 40.0561 79.7563 42.9866 79.7368 47.5191L79.7075 50.4203C85.041 50.4203 88.8116 48.0661 91.0192 43.3578C91.2146 42.9475 91.4295 42.4591 91.6639 41.8926C91.8984 41.326 92.0742 40.906 92.1914 40.6324C92.3282 40.3394 92.4942 40.0268 92.6896 39.6947C92.885 39.3625 93.0706 39.1183 93.2464 38.962C93.4418 38.8058 93.686 38.6788 93.979 38.5811C94.2721 38.4834 94.614 38.4346 95.0047 38.4346C96.2355 38.4346 97.2514 38.6397 98.0524 39.05C98.873 39.4407 99.3223 40.0756 99.4005 40.9548C99.5177 42.3224 99.0976 43.9634 98.1403 45.878C97.2026 47.7731 95.8741 49.6486 94.1549 51.5046C92.4552 53.3411 90.6382 54.8161 88.7041 55.9297C87.6882 56.5158 86.4183 56.9456 84.8945 57.2191C83.3901 57.4926 81.9346 57.6001 80.528 57.5415C79.1214 57.4633 77.9003 57.2679 76.8649 56.9553L74.6377 59.0946C73.3287 60.345 71.7072 61.3413 69.773 62.0837C67.8389 62.8261 65.8755 63.2559 63.8827 63.3732C61.89 63.4708 59.9168 63.2169 57.9631 62.6112C56.029 61.986 54.427 61.019 53.1571 59.71Z" fill="#2C3136"/>
<path d="M15.6197 44.7058C17.7101 44.1197 19.7614 43.3773 21.7737 42.4786C23.8055 41.5604 25.7006 40.5445 27.4589 39.4309C29.2367 38.2978 30.9267 37.0572 32.5287 35.7092C34.1307 34.3612 35.5569 32.9643 36.8072 31.5186C38.0576 30.0533 39.1711 28.5392 40.148 26.9763C41.1443 25.4133 41.9063 23.8504 42.4338 22.2875C42.9613 20.7245 43.3129 19.1714 43.4888 17.628C43.6646 16.065 43.5669 14.5705 43.1957 13.1443C42.4338 9.99889 40.7927 7.98661 38.2725 7.10746C35.7522 6.20877 32.724 6.58974 29.1879 8.25035C27.625 8.97321 25.6615 10.5068 23.2976 12.8512C20.9336 15.1761 19.1753 17.3154 18.0227 19.2691C16.9872 21.0078 15.9518 23.2741 14.9163 26.0678C13.8809 28.8616 13.119 31.4306 12.6305 33.7751C12.4547 34.6542 12.2789 35.6408 12.103 36.7349C11.9468 37.8289 11.8198 38.8937 11.7221 39.9291C11.6439 40.945 11.5756 41.8926 11.5169 42.7717C11.4779 43.6509 11.4779 44.3542 11.5169 44.8817C11.556 45.4092 11.6342 45.6729 11.7514 45.6729C12.0444 45.6729 13.3339 45.3505 15.6197 44.7058ZM0.263807 65.4538C-0.0292432 62.1326 -0.0487799 57.854 0.205197 52.6182C0.478711 47.3824 0.967128 42.42 1.67045 37.7312C2.5496 31.6358 3.92694 24.6514 5.80246 16.7781C7.67798 8.90483 8.97718 4.59699 9.70003 3.8546C10.1885 3.36618 10.9211 3.02429 11.8979 2.82892C12.8747 2.63355 13.7734 2.64332 14.594 2.85822C15.5903 3.1122 16.2546 3.56155 16.5867 4.20626C16.9384 4.85097 16.9481 5.65197 16.616 6.60927C16.2058 7.76194 16.0788 8.37734 16.2351 8.45549C16.4109 8.53364 17.0068 8.13313 18.0227 7.25398C20.2694 5.33939 22.9752 3.78622 26.1402 2.59448C29.3246 1.3832 32.3528 0.767797 35.2247 0.74826C39.5814 0.74826 43.2055 1.73486 46.0969 3.70807C48.9883 5.68128 50.9029 8.49456 51.8407 12.1479C52.251 13.9062 52.4073 15.7036 52.3096 17.5401C52.2314 19.357 51.8602 21.213 51.196 23.108C50.5513 25.0031 49.7014 26.8688 48.6464 28.7053C47.5915 30.5417 46.2923 32.3489 44.7489 34.1267C43.225 35.885 41.5449 37.5554 39.7084 39.1379C37.8915 40.7008 35.8694 42.1758 33.6423 43.5629C31.4151 44.9305 29.1 46.1418 26.697 47.1968C24.5675 48.0954 21.8421 49.0039 18.5209 49.9221C15.2191 50.8208 12.9431 51.2702 11.6928 51.2702C11.2239 51.2702 10.8527 51.2897 10.5792 51.3288C10.3252 51.3483 10.081 51.4362 9.84656 51.5925C9.61212 51.7488 9.43629 51.9344 9.31907 52.1493C9.22138 52.3642 9.1237 52.7159 9.02602 53.2043C8.92833 53.6927 8.85996 54.2104 8.82088 54.7575C8.80135 55.3045 8.77204 56.0762 8.73297 57.0726C8.65482 58.4011 8.64505 59.9933 8.70366 61.8493C8.78181 63.6857 8.9088 65.2096 9.08463 66.4209C9.20185 67.4954 9.27999 68.355 9.31907 68.9997C9.35814 69.6444 9.35814 70.2208 9.31907 70.7287C9.27999 71.2367 9.16277 71.6372 8.96741 71.9302C8.79158 72.2037 8.5669 72.4284 8.29339 72.6042C8.03941 72.7801 7.67798 72.9559 7.2091 73.1317C6.34949 73.4248 5.64617 73.5811 5.09914 73.6006C4.55211 73.6006 3.95624 73.4639 3.31153 73.1903C2.56914 72.8973 2.01234 72.5163 1.64114 72.0474C1.28948 71.559 1.0062 70.8362 0.791298 69.8789C0.595931 68.9216 0.420101 67.4466 0.263807 65.4538Z" fill="#2C3136"/>
</svg>
