<svg width="137" height="33" viewBox="0 0 137 33" fill="none" xmlns="http://www.w3.org/2000/svg">
<path d="M127.058 1.95801C129.31 1.95807 131.325 2.53658 132.788 3.84375C134.27 5.16783 135.042 7.11188 135.042 9.53711V27.4111C135.042 28.0626 134.857 28.7256 134.365 29.2266C133.87 29.7305 133.203 29.9306 132.523 29.9307H128.461C127.79 29.9307 127.131 29.7247 126.639 29.2324C126.147 28.7402 125.941 28.0815 125.941 27.4111V19.5898H125.514V27.4111C125.514 28.0626 125.329 28.7256 124.837 29.2266C124.342 29.7305 123.674 29.9306 122.995 29.9307H118.97C118.29 29.9307 117.622 29.7307 117.127 29.2266C116.635 28.7256 116.45 28.0626 116.45 27.4111V9.53711C116.45 7.11607 117.21 5.17145 118.683 3.8457C120.137 2.53595 122.146 1.95801 124.398 1.95801H127.058ZM125.728 9.21191C125.608 9.21196 125.568 9.24977 125.56 9.25781C125.551 9.2659 125.514 9.30631 125.514 9.42578V12.2988H125.941V9.42578C125.941 9.3062 125.904 9.26585 125.896 9.25781C125.887 9.24935 125.846 9.21191 125.728 9.21191Z" fill="#D9E694" stroke="#434343" stroke-width="2.08388"/>
<path d="M115.141 1.95801C116.365 1.95814 117.327 3.00009 117.327 4.14453V7.02539C117.327 8.22859 116.344 9.21179 115.141 9.21191H112.526V27.374C112.526 28.0145 112.366 28.6855 111.875 29.1953C111.377 29.7121 110.705 29.8936 110.044 29.8936H105.981C105.833 29.8935 105.688 29.8775 105.546 29.8525V29.8896L105.502 29.8457C104.346 29.6218 103.426 28.6075 103.426 27.3379V24.8223L103.462 24.8584V9.21191H100.885C99.6228 9.21174 98.6982 8.20636 98.6982 7.02539V4.14453C98.6984 3.02254 99.6017 1.95819 100.885 1.95801H115.141Z" fill="#D9E694" stroke="#434343" stroke-width="2.08388"/>
<path d="M97.4961 1.95801C98.1754 1.95804 98.8429 2.1581 99.3379 2.66211C99.8298 3.16309 100.015 3.82609 100.015 4.47754V6.69336C100.015 7.35287 99.8355 8.02412 99.3447 8.5332C98.848 9.04835 98.1758 9.24899 97.4961 9.24902H92.5918V12.3359H96.3877C97.048 12.3359 97.7201 12.516 98.2236 13.0195C98.7269 13.523 98.9072 14.1944 98.9072 14.8545V17.0703C98.9072 17.7306 98.7271 18.4027 98.2236 18.9062C97.7201 19.4098 97.048 19.5898 96.3877 19.5898H92.5918V22.6758H97.4961C98.1563 22.6758 98.8276 22.8569 99.3311 23.3604C99.8345 23.8638 100.015 24.5351 100.015 25.1953V27.4111C100.015 28.0714 99.8346 28.7435 99.3311 29.2471C98.8276 29.7503 98.1562 29.9306 97.4961 29.9307H86.0479C84.623 29.9307 83.4912 28.7989 83.4912 27.374V4.55078C83.4914 3.17619 84.5373 1.95801 86.0479 1.95801H97.4961Z" fill="#D9E694" stroke="#434343" stroke-width="2.08388"/>
<path d="M71.4814 1.95801C72.8692 1.95813 74.0369 3.08923 74.0371 4.55078V6.24219L74.7314 3.95312L74.7354 3.93945C74.9152 3.37448 75.2278 2.86317 75.7217 2.50098C76.2159 2.13866 76.7977 1.99512 77.3906 1.99512H81.416C82.1272 1.9952 82.9023 2.20524 83.3877 2.85938C83.8726 3.51289 83.8476 4.31209 83.6309 4.99902L83.6318 5L80.3252 15.9609L83.6318 26.8877H83.6299C83.8472 27.5751 83.873 28.3752 83.3877 29.0293C82.9023 29.6834 82.1271 29.8935 81.416 29.8936H77.3906C76.7976 29.8936 76.216 29.7492 75.7217 29.3867C75.2896 29.0698 74.9966 28.6394 74.8096 28.1582L74.7354 27.9492L74.7314 27.9355L74.0371 25.6455V27.3379C74.0369 28.7624 72.906 29.8934 71.4814 29.8936H67.4932C66.0685 29.8936 64.9368 28.7625 64.9365 27.3379V4.55078C64.9367 3.17619 65.9826 1.95801 67.4932 1.95801H71.4814Z" fill="#D9E694" stroke="#434343" stroke-width="2.08388"/>
<path d="M56.7305 1.95801C58.9832 1.95801 60.9916 2.53598 62.4463 3.8457C63.9187 5.17145 64.6787 7.11602 64.6787 9.53711V22.3516C64.6787 24.7727 63.9187 26.7172 62.4463 28.043C60.9916 29.3526 58.9832 29.9307 56.7305 29.9307H54.0723C51.8032 29.9307 49.7861 29.3533 48.3262 28.0439C46.8478 26.7179 46.0869 24.7728 46.0869 22.3516V9.53711C46.0869 7.11592 46.8478 5.17076 48.3262 3.84473C49.7861 2.53533 51.8032 1.95801 54.0723 1.95801H56.7305ZM55.4014 9.24902C55.3235 9.24903 55.2775 9.26206 55.2559 9.27051C55.236 9.27828 55.2294 9.28519 55.2275 9.28711C55.2255 9.28916 55.2178 9.29789 55.209 9.32129C55.1998 9.34576 55.1875 9.39111 55.1875 9.46289V22.4629C55.1875 22.5346 55.1998 22.5801 55.209 22.6045C55.2177 22.6278 55.2255 22.6366 55.2275 22.6387C55.2296 22.6408 55.2365 22.6477 55.2559 22.6553C55.2775 22.6637 55.3235 22.6758 55.4014 22.6758C55.5202 22.6758 55.5609 22.6393 55.5693 22.6309C55.5774 22.6228 55.6152 22.5824 55.6152 22.4629V9.42578C55.6152 9.3062 55.5774 9.26585 55.5693 9.25781C55.5672 9.25571 55.5617 9.25377 55.5547 9.24902H55.4014Z" fill="#D9E694" stroke="#434343" stroke-width="2.08388"/>
<path d="M38.6133 1.95801C40.8824 1.95801 42.8994 2.53529 44.3594 3.84473C45.8378 5.17076 46.5986 7.11592 46.5986 9.53711V14.2637C46.5986 16.669 45.8358 18.6044 44.3574 19.9248C42.898 21.2282 40.8824 21.8057 38.6133 21.8057H37.1074V27.4111C37.1074 28.0626 36.9225 28.7256 36.4307 29.2266C35.9356 29.7308 35.2674 29.9307 34.5879 29.9307H4.51465C3.0898 29.9307 1.95801 28.7989 1.95801 27.374V4.55078C1.95817 3.17619 3.00409 1.95801 4.51465 1.95801H38.6133ZM37.0703 14.5518H37.2842C37.4356 14.5517 37.4853 14.5048 37.4922 14.498C37.4986 14.4918 37.5351 14.4556 37.5352 14.3379V9.46289C37.5352 9.3853 37.5215 9.34118 37.5137 9.32129C37.5065 9.30297 37.5012 9.29709 37.5 9.2959C37.498 9.29403 37.4874 9.28408 37.458 9.27344C37.4269 9.26217 37.3708 9.24904 37.2842 9.24902H37.0703V14.5518Z" fill="#D9E694" stroke="#434343" stroke-width="2.08388"/>
<path d="M17.0003 8.46321C13.0566 6.74133 11.901 12.2819 11.8161 15.2674C11.4381 17.2192 11.4551 21.5763 14.5471 23.3907C17.639 25.2052 19.4303 21.817 19.9395 19.8961C20.6029 16.8026 20.9439 10.1851 17.0003 8.46321Z" fill="white" stroke="#434343" stroke-width="1.82339" stroke-linejoin="round"/>
<path d="M15.1185 19.6387C16.5765 19.023 16.7404 16.8168 16.6401 15.7907C16.9516 10.5968 14.6467 10.5745 13.4553 11.2125L13.0307 12.1202L12.5176 15.9683L12.7299 18.5731C12.9186 19.1848 13.6606 20.2544 15.1185 19.6387Z" fill="#434343" stroke="#434343" stroke-width="1.82339" stroke-linejoin="round"/>
<path d="M25.7014 8.46321C21.7578 6.74133 20.6022 12.2819 20.5173 15.2674C20.1393 17.2192 20.1563 21.5763 23.2482 23.3907C26.3402 25.2052 28.1315 21.817 28.6407 19.8961C29.3041 16.8026 29.6451 10.1851 25.7014 8.46321Z" fill="white" stroke="#434343" stroke-width="1.82339" stroke-linejoin="round"/>
<path d="M23.7948 19.6387C25.461 19.023 25.6484 16.8168 25.5338 15.7907C25.8897 10.5968 23.2555 10.5745 21.894 11.2125L21.4087 12.1202L20.8223 15.9683L21.0649 18.5731C21.2806 19.1848 22.1285 20.2544 23.7948 19.6387Z" fill="#434343" stroke="#434343" stroke-width="1.82339" stroke-linejoin="round"/>
</svg>
